<?xml version="1.0" standalone="no"?>
<!DOCTYPE svg PUBLIC "-//W3C//DTD SVG 20010904//EN"
 "http://www.w3.org/TR/2001/REC-SVG-20010904/DTD/svg10.dtd">
<svg version="1.0" xmlns="http://www.w3.org/2000/svg"
 width="260.000000pt" height="260.000000pt" viewBox="0 0 260.000000 260.000000"
 preserveAspectRatio="xMidYMid meet">
<metadata>
Created by potrace 1.14, written by Peter Selinger 2001-2017
</metadata>
<g transform="translate(0.000000,260.000000) scale(0.100000,-0.100000)"
fill="#000000" stroke="none">
<path d="M0 1300 l0 -1300 1300 0 1300 0 0 854 0 854 -82 -24 c-115 -33 -253
-61 -393 -79 -66 -9 -123 -19 -127 -23 -35 -35 -304 -873 -378 -1173 -35 -146
-38 -191 -10 -219 16 -16 24 -18 51 -8 72 25 263 238 464 518 85 118 143 180
170 180 8 0 15 -7 15 -15 0 -38 -151 -301 -252 -437 -75 -102 -227 -255 -290
-292 -97 -56 -237 -76 -286 -39 -54 40 -67 78 -66 188 2 128 -1 116 279 1075
32 107 59 202 62 211 4 15 -12 18 -134 23 -192 9 -292 28 -320 61 -28 32 -29
49 -2 76 20 20 26 21 233 14 116 -4 225 -5 242 -1 27 6 33 14 52 74 44 137
109 296 124 306 23 14 91 -9 133 -45 47 -41 46 -75 -5 -217 l-40 -112 280 0
280 0 0 425 0 425 -1300 0 -1300 0 0 -1300z m1305 1131 c88 -39 132 -100 142
-196 20 -191 -230 -524 -394 -525 -18 0 -33 5 -33 12 0 6 35 79 79 162 91 174
148 313 158 381 l6 48 -45 -5 c-57 -7 -217 -82 -322 -152 -111 -74 -179 -141
-201 -200 -18 -47 -18 -48 3 -91 26 -54 75 -87 310 -207 208 -106 294 -161
370 -237 93 -93 142 -208 142 -331 0 -263 -284 -635 -616 -807 -99 -52 -239
-99 -320 -108 -113 -12 -258 28 -344 96 -84 66 -140 197 -140 326 0 268 268
562 586 643 74 19 144 26 144 14 0 -20 -33 -54 -123 -123 -184 -142 -308 -288
-393 -464 -39 -82 -48 -109 -51 -170 -4 -68 -3 -74 25 -107 29 -34 32 -35 98
-35 59 1 81 6 155 42 157 74 341 215 514 394 118 122 175 196 216 282 80 169
4 260 -296 352 -333 102 -379 121 -444 179 -86 78 -123 237 -85 367 26 86 52
129 127 206 117 121 262 211 419 258 107 32 236 31 313 -4z"/>
</g>
</svg>
